Coordinates
version=1
nRows=45
nColumns=13
inDegrees=yes

Units are S.I. units (second, meters, Newtons, ...)
Angles are in degrees.

endheader
time	pelvis_tilt	pelvis_list	pelvis_rotation	pelvis_tx	pelvis_ty	pelvis_tz	hip_flexion_r	hip_adduction_r	hip_rotation_r	knee_angle_r	ankle_angle_r	subtalar_angle_r
      0.00000000	    -11.03080266	     -3.24420452	      8.73531615	     -0.60677999	      0.84496289	     -0.12000346	     38.59479767	      2.08959616	    -12.45065277	    -11.04687150	      0.54099496	     -1.02916079
      0.01000000	    -10.95045564	     -3.43484485	      8.40614850	     -0.58876327	      0.84540140	     -0.11858698	     37.96639660	      2.76908492	    -11.22357053	    -11.50375771	     -3.28116932	     -3.17155643
      0.02000000	    -11.01858650	     -3.71205606	      7.95969161	     -0.57093261	      0.84618543	     -0.11676404	     37.49847890	      3.55261992	    -10.37547145	    -12.24500227	     -4.92258329	     -3.45763454
      0.03000000	    -11.11844896	     -4.08602538	      7.48880989	     -0.55331056	      0.84718137	     -0.11472432	     37.24201686	      4.38484811	     -9.76671583	    -13.57132066	     -5.25027088	     -2.98134509
      0.04000000	    -11.16197677	     -4.55577850	      6.99134055	     -0.53624177	      0.84849480	     -0.11253614	     37.24086811	      5.33474600	     -8.73011631	    -15.57683218	     -5.50617981	     -4.02182352
      0.05000000	    -11.03178770	     -5.03429269	      6.48291805	     -0.51950298	      0.84990791	     -0.11051602	     37.12967446	      6.26460167	     -8.20165083	    -17.73940990	     -4.57549995	     -4.45694117
      0.06000000	    -10.80726577	     -5.61066275	      6.05335938	     -0.50329521	      0.85128654	     -0.10889691	     36.88382260	      7.19835786	     -8.07156381	    -19.85862252	     -2.96297201	     -4.26269471
      0.07000000	    -10.57498169	     -6.16711854	      5.56288696	     -0.48767677	      0.85253900	     -0.10742851	     36.47036421	      8.14930688	     -7.92839607	    -21.63232262	     -1.22563724	     -3.83028943
      0.08000000	    -10.39650924	     -6.66936297	      4.96574515	     -0.47278262	      0.85360180	     -0.10595325	     35.91782644	      9.09062630	     -7.76980099	    -22.95282523	      0.31469528	     -3.43089402
      0.09000000	    -10.24678348	     -7.21404079	      4.34184755	     -0.45823716	      0.85456418	     -0.10448210	     35.11085219	     10.07070284	     -7.78146170	    -23.69889813	      1.80248859	     -2.96739924
      0.10000000	    -10.14908002	     -7.76312742	      3.72511495	     -0.44410004	      0.85554041	     -0.10288743	     34.10392399	     11.05766522	     -7.87982713	    -23.92173429	      3.30643749	     -2.31877497
      0.11000000	    -10.12880074	     -8.26103363	      3.16471798	     -0.43028823	      0.85648383	     -0.10115242	     33.00436854	     11.96140774	     -8.06302974	    -23.77966593	      4.67997051	     -1.67317737
      0.12000000	    -10.18482757	     -8.56897215	      2.67326147	     -0.41681352	      0.85755694	     -0.09932649	     31.85536104	     12.66558552	     -8.17326201	    -23.40312432	      5.93681158	     -1.12200472
      0.13000000	    -10.29706222	     -8.61533934	      2.23729698	     -0.40339855	      0.85897919	     -0.09745300	     30.64305253	     13.15011631	     -7.97975749	    -22.86308694	      6.94200120	     -0.94557852
      0.14000000	    -10.56858081	     -8.48652083	      1.88517919	     -0.39016697	      0.86056686	     -0.09550812	     29.56312186	     13.46639266	     -7.53456675	    -22.24619366	      7.61033245	     -1.27821337
      0.15000000	    -10.95204099	     -8.20075461	      1.59688506	     -0.37691376	      0.86236004	     -0.09360615	     28.57210010	     13.61177477	     -6.90715375	    -21.59796175	      8.06213199	     -1.84313570
      0.16000000	    -11.33503506	     -7.78615791	      1.39362682	     -0.36360008	      0.86431858	     -0.09184466	     27.56238266	     13.57683981	     -6.24066344	    -20.94253954	      8.36045839	     -2.36217543
      0.17000000	    -11.59051871	     -7.27360978	      1.24986596	     -0.35023470	      0.86651580	     -0.09031499	     26.39437539	     13.38795102	     -5.61873764	    -20.25578006	      8.70600833	     -2.78274564
      0.18000000	    -11.73604862	     -6.69783695	      1.12355060	     -0.33680877	      0.86888078	     -0.08905099	     25.07314562	     13.07773784	     -5.05557099	    -19.50928167	      9.11268011	     -2.97488860
      0.19000000	    -11.78928925	     -6.07020490	      0.96597118	     -0.32335000	      0.87135927	     -0.08799495	     23.59837261	     12.69045090	     -4.48751355	    -18.65249322	      9.46939594	     -3.09607503
      0.20000000	    -11.75830032	     -5.44639707	      0.75896935	     -0.30975917	      0.87386520	     -0.08703367	     21.93248309	     12.32651059	     -3.82415567	    -17.58127961	      9.56389446	     -3.48978054
      0.21000000	    -11.69621261	     -4.85453993	      0.53805828	     -0.29610104	      0.87621608	     -0.08627103	     20.17758569	     11.98008928	     -3.09566045	    -16.37528934	      9.47585434	     -4.09511567
      0.22000000	    -11.65299301	     -4.32966642	      0.31987655	     -0.28248955	      0.87835749	     -0.08579560	     18.46636335	     11.59927346	     -2.41272809	    -15.23413135	      9.64753265	     -4.15303236
      0.23000000	    -11.64776597	     -3.85661513	      0.11487783	     -0.26890661	      0.88014508	     -0.08549126	     16.78126148	     11.24635750	     -1.80443407	    -13.97512880	      9.68642055	     -4.36100252
      0.24000000	    -11.65007904	     -3.48218665	     -0.07916343	     -0.25518190	      0.88158619	     -0.08524451	     15.08483203	     11.00541253	     -1.14193196	    -12.65781582	      9.44711921	     -4.92174840
      0.25000000	    -11.72719303	     -3.15980801	     -0.28280815	     -0.24149831	      0.88253610	     -0.08513106	     13.56401314	     10.78522303	     -0.56185317	    -11.50096954	      9.02178338	     -5.79719015
      0.26000000	    -11.83661925	     -2.90320871	     -0.48022962	     -0.22783649	      0.88305838	     -0.08510546	     12.12170047	     10.61927503	     -0.00868791	    -10.37826197	      8.50289774	     -6.69584977
      0.27000000	    -11.93174274	     -2.75743497	     -0.61178828	     -0.21403258	      0.88324064	     -0.08536219	     10.75241292	     10.49204605	      0.03839863	     -9.43084258	      8.46872247	     -6.73838187
      0.28000000	    -12.00983071	     -2.67264747	     -0.72172751	     -0.20012259	      0.88305401	     -0.08577057	      9.39431916	     10.37986282	     -0.29670754	     -8.53796996	      8.87084433	     -6.25342521
      0.29000000	    -12.20327958	     -2.51859634	     -0.98605305	     -0.18657227	      0.88224525	     -0.08591997	      8.17016255	     10.26088441	     -0.20075102	     -7.61048098	      8.91339789	     -6.51486769
      0.30000000	    -12.33914351	     -2.46061883	     -1.20263416	     -0.17276856	      0.88114316	     -0.08624423	      6.91675237	     10.22539610	     -0.40157744	     -6.75839660	      9.06758659	     -6.43205276
      0.31000000	    -12.34366257	     -2.45061362	     -1.40034162	     -0.15869428	      0.87986127	     -0.08667544	      5.58566468	     10.23063515	     -0.87735158	     -6.05396094	      9.43146518	     -6.20604788
      0.32000000	    -12.21239927	     -2.48727976	     -1.61305911	     -0.14439035	      0.87841743	     -0.08715863	      4.16142136	     10.27556740	     -1.31727587	     -5.52666457	      9.81578297	     -6.04235445
      0.33000000	    -12.01360277	     -2.56729484	     -1.88657966	     -0.13001466	      0.87676002	     -0.08751597	      2.74350215	     10.38220299	     -1.56173225	     -5.21410070	     10.11258174	     -6.03353718
      0.34000000	    -11.76374033	     -2.66674061	     -2.27831048	     -0.11530866	      0.87484584	     -0.08772700	      1.32035875	     10.49822958	     -1.55527512	     -5.09775583	     10.43884509	     -6.10535887
      0.35000000	    -11.50248747	     -2.79475335	     -2.81545835	     -0.10016689	      0.87262295	     -0.08781642	     -0.08785682	     10.60916438	     -1.22531776	     -5.16159814	     10.73939000	     -6.25607109
      0.36000000	    -11.29448270	     -2.93368753	     -3.40286744	     -0.08500772	      0.87017749	     -0.08781838	     -1.37417580	     10.68980073	     -0.73080638	     -5.39389260	     11.03437437	     -6.35223588
      0.37000000	    -11.17037676	     -3.05901826	     -4.05550284	     -0.06981218	      0.86768467	     -0.08785381	     -2.47355508	     10.69639629	     -0.17277536	     -5.83511859	     11.40661494	     -6.18939883
      0.38000000	    -11.12355839	     -3.21581700	     -4.70842470	     -0.05448501	      0.86523000	     -0.08801044	     -3.41368991	     10.67187532	      0.35285694	     -6.44565552	     11.80745884	     -5.65640477
      0.39000000	    -11.21892473	     -3.30676461	     -5.40096002	     -0.03910400	      0.86272171	     -0.08816006	     -4.15362853	     10.53777557	      0.94572787	     -7.14374411	     12.13144014	     -4.86167231
      0.40000000	    -11.41655999	     -3.37348307	     -6.07455719	     -0.02367502	      0.86025083	     -0.08842591	     -4.71890739	     10.34497595	      1.45057156	     -7.94303851	     12.40856609	     -3.70375538
      0.41000000	    -11.67226047	     -3.43258839	     -6.71938383	     -0.00811340	      0.85783864	     -0.08880456	     -5.17235570	     10.09632462	      1.76876115	     -8.80646270	     12.79713458	     -2.11786128
      0.42000000	    -11.93324641	     -3.48249702	     -7.33333946	      0.00763195	      0.85548361	     -0.08926145	     -5.51049547	      9.81243143	      2.03809381	     -9.84712057	     13.13279226	     -0.49803242
      0.43000000	    -12.14630636	     -3.49137470	     -7.89170402	      0.02362004	      0.85321305	     -0.08978071	     -5.82537763	      9.46849459	      2.28133878	    -10.99997942	     13.27990776	      1.08560628
      0.44000000	    -12.27516256	     -3.46048478	     -8.35454366	      0.03982156	      0.85109235	     -0.09039175	     -6.06074202	      9.07108616	      2.33286381	    -12.43074678	     13.35193729	      2.89079096
